<svg
  xmlns="http://www.w3.org/2000/svg"
  xmlns:xlink="http://www.w3.org/1999/xlink"
  version="1.1"
  viewBox="0 0 412 170"
  width="100px" >
  <g>
    <g>
      <path d="M357.695,46.84c-21.709,19.143-45.42,40.286-67.133,59.426c0.012,0.019,0.021,0.037,0.033,0.055    c0.221,0.304,0.431,0.634,0.617,1.007c0.213,0.364,0.377,0.729,0.513,1.092c1.61,3.562,2.552,7.399,2.828,11.276    c23.55-20.768,49.103-43.531,72.651-64.296C363.496,53.207,360.23,50.286,357.695,46.84z" style="fill: rgb(255, 255, 255);"></path>
      <path d="M180.173,46.953c-0.335,4.729-1.796,9.276-4.137,13.298c19.734,17.397,41.469,36.794,61.206,54.193    c1.023-4.32,2.949-8.404,5.752-11.873C222.718,84.699,200.446,64.827,180.173,46.953z" style="fill: rgb(255, 255, 255);"></path>
      <path d="M48.861,115.436c-4.961-3.76-11.172-6.078-18.233-6.459c-17.169-0.925-29.575,14.611-30.427,30.426    c-0.924,17.174,14.613,29.578,30.427,30.428c16.481,0.89,28.541-13.396,30.239-28.528c0.139-0.58,0.226-1.193,0.188-1.898    c0.038-0.688-0.047-1.295-0.18-1.866c-0.477-4.568-1.748-8.769-3.736-12.449c23.104-20.365,47.205-41.734,70.307-62.1    c-2.705-3.52-4.635-7.626-5.478-12.115C97.932,72.06,72.896,94.25,48.861,115.436z M12.938,139.402    c-1.229-22.816,34.157-22.697,35.38,0C47.091,162.205,14.166,162.205,12.938,139.402z" style="fill: rgb(255, 255, 255);"></path>
      <path d="M181.025,42.208c-0.03-0.238-0.07-0.472-0.116-0.704c-0.017-0.322-0.047-0.649-0.111-0.989    c-2.882-15.311-17.058-26.097-32.583-24.794c-15.79,1.326-27.284,14.775-27.716,30.276c-0.056,2.016,0.114,3.977,0.47,5.874    c0.843,4.489,2.773,8.596,5.478,12.115c5.991,7.794,15.771,12.698,25.936,12.395c10.593-0.316,19.635-6.51,24.654-15.13    c2.341-4.021,3.802-8.568,4.137-13.298C181.307,46.058,181.27,44.137,181.025,42.208z M152.382,63.644    c-10.539,0.946-18.634-7.546-19.146-17.646c-0.461-9.093,7.04-15.94,15.349-17.581c9.742-1.923,17.808,6.013,19.787,14.802    C169.189,53.309,163.102,62.681,152.382,63.644z" style="fill: rgb(255, 255, 255);"></path>
      <path d="M292.212,106.326c-0.188-0.373-0.396-0.703-0.616-1.006c-0.013-0.02-0.022-0.037-0.033-0.055    c-8.838-13.961-26.388-18.45-41.076-10.691c-3.397,1.795-6.229,4.195-8.493,6.996c-2.803,3.469-4.729,7.553-5.752,11.873    c-1.832,7.73-0.787,16.219,3.269,23.285c8.04,14.014,25.696,17.791,39.756,11.43c11.688-5.287,17.144-17.531,16.29-29.465    c-0.275-3.875-1.219-7.715-2.828-11.275C292.589,107.056,292.425,106.691,292.212,106.326z M274.003,136.552    c-7.559,4.479-17.772,1.762-22.801-5.177c-5.832-8.045-3.619-19.381,4.428-25.018c8.82-6.18,20.429-2.469,25.584,6.396    C285.625,121.578,282.337,131.609,274.003,136.552z" style="fill: rgb(255, 255, 255);"></path>
      <path d="M412.001,29.064C411.554,13.078,398.064,1,382.667,0.057c-0.336-0.04-0.684-0.064-1.053-0.054    c-0.367-0.01-0.711,0.014-1.043,0.053c-16,0.938-28.01,13.024-29.352,29.009c-0.586,6.994,1.588,13.496,5.475,18.775    c2.533,3.446,5.801,6.366,9.512,8.559c5.395,3.191,11.729,4.844,18.117,4.308C400.515,59.347,412.449,45.063,412.001,29.064z     M383.955,48.011c-11.338,2.239-20.285-8.536-19.994-18.946c0.26-9.312,8.863-16.08,17.654-16.325    c9.182,0.256,16.869,7.02,17.648,16.325C400.074,38.709,393.021,46.221,383.955,48.011z" style="fill: rgb(255, 255, 255);"></path>
    </g>
  </g>
  </svg>
